{"title":"Hot For Teacher # 3 DVD","uid":7059395,"size":1565685833,"categoryP":"porn","categoryS":"movies","magnet":"?xt=urn:btih:dc46ba5d67d442d45a99de0a1bcaf8864073a9c4&amp;dn=Hot+For+Teacher+%23+3+DVD&amp;tr=udp%3A%2F%2Ftracker.openbittorrent.com%3A80&amp;tr=udp%3A%2F%2Fopen.demonii.com%3A1337&amp;tr=udp%3A%2F%2Ftracker.coppersurfer.tk%3A6969&amp;tr=udp%3A%2F%2Fexodus.desync.com%3A6969","seeders":0,"leechers":1,"uploader":"tigris1968","files":9,"time":1330295289,"description":"Hot For Teacher # 3 DVD\n\nInnocent High\n\nCategory All Sex, Legal Teen, Schoolgirls\n\nStarring Amy Brooke, Cameron Love, Lexi Diamond, Bella Rey, Stephanie Richards\n\nStarring Lexi Diamond!\n\nAfter School Activities Is Where She Really Shines!\n\nStudio Innocent High \nDiscs 1 \nRelease Date Feb 08, 2012\n &lt;a href=&quot;\nhttp://bayimg.com/lamEmAADo&quot; rel=&quot;nofollow&quot; target=&quot;_NEW&quot;&gt;\nhttp://bayimg.com/lamEmAADo&lt;/a&gt;\n &lt;a href=&quot;\nhttp://bayimg.com/LameOaadO&quot; rel=&quot;nofollow&quot; target=&quot;_NEW&quot;&gt;\nhttp://bayimg.com/LameOaadO&lt;/a&gt;\n &lt;a href=&quot;\nhttp://bayimg.com/mAMeaAaDO&quot; rel=&quot;nofollow&quot; target=&quot;_NEW&quot;&gt;\nhttp://bayimg.com/mAMeaAaDO&lt;/a&gt;\n\n                                  info\n\nGeneral\nComplete name                    : C:\\Downloads\\Hot For Teacher # 3 DVD\\DVD\\Hot For Teacher # 3 DVD.avi\nFormat                           : AVI\nFormat/Info                      : Audio Video Interleave\nFormat profile                   : OpenDML\nFile size                        : 1.46 GiB\nDuration                         : 2h 35mn\nOverall bit rate                 : 1 340 Kbps\nWriting application              : MEncoder SVN-r30881(20100311-gcc4.3.3)\nWriting library                  : MPlayer\n\nVideo\nID                               : 0\nFormat                           : MPEG-4 Visual\nFormat profile                   : Advanced Simple@L5\nFormat settings, BVOP            : 2\nFormat settings, QPel            : No\nFormat settings, GMC             : No warppoints\nFormat settings, Matrix          : Default (H.263)\nCodec ID                         : XVID\nCodec ID/Hint                    : XviD\nDuration                         : 2h 35mn\nBit rate                         : 41.7 Kbps\nWidth                            : 720 pixels\nHeight                           : 480 pixels\nDisplay aspect ratio             : 3:2\nFrame rate                       : 25.000 fps\nStandard                         : NTSC\nColor space                      : YUV\nChroma subsampling               : 4:2:0\nBit depth                        : 8 bits\nScan type                        : Progressive\nCompression mode                 : Lossy\nBits/(Pixel*Frame)               : 0.005\nStream size                      : 46.3 MiB (3%)\nWriting library                  : XviD 1.2.1 (UTC 2008-12-04)\n\nAudio\nID                               : 1\nFormat                           : MPEG Audio\nCodec ID                         : 55\nCodec ID/Hint                    : MP3\nDuration                         : 2h 35mn\nBit rate                         : 128 Kbps\nChannel(s)                       : 2 channels\nSampling rate                    : 44.1 KHz\nCompression mode                 : Lossy\nStream size                      : 142 MiB (10%)\nAlignment                        : Aligned on interleaves","torrent":{"xt":"urn:btih:dc46ba5d67d442d45a99de0a1bcaf8864073a9c4","amp;dn":"Hot+For+Teacher+%23+3+DVD","amp;tr":["udp%3A%2F%2Ftracker.openbittorrent.com%3A80","udp%3A%2F%2Fopen.demonii.com%3A1337","udp%3A%2F%2Ftracker.coppersurfer.tk%3A6969","udp%3A%2F%2Fexodus.desync.com%3A6969"],"infoHash":"dc46ba5d67d442d45a99de0a1bcaf8864073a9c4","infoHashBuffer":{"type":"Buffer","data":[220,70,186,93,103,212,66,212,90,153,222,10,27,202,248,134,64,115,169,196]},"announce":[],"urlList":[]}}